# AST/ASF file generated using VICON BodyLanguage
# -----------------------------------------------
:version 1.10
:name VICON
:units
  mass 1.0
  length 0.45
  angle deg
:documentation
   .ast/.asf automatically generated from VICON data using
   VICON BodyBuilder and BodyLanguage model FoxedUp or BRILLIANT.MOD
:root
   order TX TY TZ RX RY RZ
   axis XYZ
   position 0 0 0  
   orientation 0 0 0 
:bonedata
  begin
     id 1 
     name lhipjoint
     direction 0.547975 -0.797114 0.253638 
     length 2.36201 
     axis 0 0 0  XYZ
  end
  begin
     id 2 
     name lfemur
     direction 0.34202 -0.939693 0  
     length 7.69075  
     axis 0 0 20  XYZ
    dof rx ry rz
    limits (-160.0 20.0)
           (-70.0 70.0)
           (-60.0 70.0)
  end
  begin
     id 3 
     name ltibia
     direction 0.34202 -0.939693 0   
     length 7.91399   
     axis 0 0 20   XYZ
    dof rx
    limits (-10.0 170.0)
  end
  begin
     id 4 
     name lfoot
     direction 0.0705293 -0.193778 0.978507   
     length 2.13618   
     axis -90 7.62852e-016 20   XYZ
    dof rx rz
    limits (-45.0 90.0)
           (-70.0 20.0)
  end
  begin
     id 5 
     name ltoes
     direction 1.53592e-011 -4.21925e-011 1   
     length 1.07518   
     axis -90 7.62852e-016 20   XYZ
    dof rx
    limits (-90.0 20.0)
  end
  begin
     id 6 
     name rhipjoint
     direction -0.57 -0.782963 0.249136   
     length 2.4047  
     axis 0 0 0  XYZ 
  end
  begin
     id 7 
     name rfemur
     direction -0.34202 -0.939693 0   
     length 7.51486   
     axis 0 0 -20   XYZ
    dof rx ry rz
    limits (-160.0 20.0)
           (-70.0 70.0)
           (-70.0 60.0)
  end
  begin
     id 8 
     name rtibia
     direction -0.34202 -0.939693 0   
     length 8.08317   
     axis 0 0 -20   XYZ
    dof rx
    limits (-10.0 170.0)
 end
 begin
     id 9 
     name rfoot
     direction -0.104954 -0.281256 0.953876   
     length 2.30343  
     axis -90 -7.62852e-016 -20   XYZ
    dof rx rz
    limits (-45.0 90.0)
           (-20.0 70.0)
  end
  begin
     id 10 
     name rtoes
     direction -1.53556e-011 -4.21922e-011 1   
     length 1.14803   
     axis -90 -7.62852e-016 -20   XYZ
    dof rx
    limits (-90.0 20.0)
  end
  begin
     id 11 
     name lowerback
     direction -0.0152855 0.99353 -0.11254   
     length 2.05311   
     axis 0 0 0   XYZ
    dof rx ry rz
    limits (-20.0 45.0)
           (-30.0 30.0)
           (-30.0 30.0)
  end
  begin
     id 12 
     name upperback
     direction -0.00157509 0.999443 -0.033332   
     length 2.06353   
     axis 0 0 0   XYZ
    dof rx ry rz
    limits (-20.0 45.0)
           (-30.0 30.0)
           (-30.0 30.0)
  end
  begin
     id 13 
     name thorax
     direction 0.00577788 0.999804 0.0189484   
     length 2.08472   
     axis 0 0 0   XYZ
    dof rx ry rz
    limits (-20.0 45.0)
           (-30.0 30.0)
           (-30.0 30.0)
  end
  begin
     id 14 
     name lowerneck
     direction -1.09301e-005 0.994719 0.10264   
     length 1.76249   
     axis 0 0 0   XYZ
    dof rx ry rz
    limits (-20.0 45.0)
           (-30.0 30.0)
           (-30.0 30.0)
  end
  begin
     id 15 
     name upperneck
     direction 0.0495018 0.988526 -0.142706   
     length 1.77897   
     axis 0 0 0   XYZ
    dof rx ry rz
    limits (-20.0 45.0)
           (-30.0 30.0)
           (-30.0 30.0)
  end
  begin
     id 16
     name head
     direction 0.0142736 0.998114 -0.0597101  
     length 1.78934  
     axis 0 0 0   XYZ
    dof rx ry rz
    limits (-20.0 45.0)
           (-30.0 30.0)
           (-30.0 30.0)
  end
  begin
     id 17 
     name lclavicle
     direction 0.918111 0.396107 -0.0130883  
     length 3.37276  
     axis 0 0 0   XYZ
    dof ry rz
    limits (-20.0 10.0)
           (0.0 20.0)
  end
  begin
     id 18 
     name lhumerus
     direction 1 -4.48975e-011 -3.26108e-027   
     length 5.34298   
     axis 180 -30 -90   XYZ
    dof rx ry rz
    limits (-60.0 90.0)
           (-90.0 90.0)
           (-90.0 90.0)
  end
  begin
     id 19
     name lradius
     direction 1 -4.48964e-011 -8.84413e-028   
     length 3.67262   
     axis 180 -30 -90   XYZ
    dof rx
    limits (-10.0 170.0)
  end
  begin
     id 20
     name lwrist
     direction 1 -4.48991e-011 -1.24264e-027   
     length 1.83631   
     axis -2.17013e-015 90 90   XYZ
    dof ry
    limits (-180.0 0.0)
 end
  begin
     id 21 
     name lhand
     direction 1 -4.48855e-011 -2.48528e-027   
     length 0.599298   
     axis 1.58582e-015 90 90   XYZ
    dof rx rz
    limits (-90.0 90.0)
           (-45.0 45.0)
  end
  begin
     id 22 
     name lfingers
     direction 1 -4.48811e-011 -4.97056e-027   
     length 0.48317   
     axis 3.17164e-015 90 90   XYZ
    dof rx
    limits (0.0 90.0)
  end
  begin
     id 23
     name lthumb
     direction 0.707107 -6.34882e-011 0.707107   
     length 0.693738   
     axis -90 45 2.85299e-015   XYZ
    dof rx rz
    limits (-45.0 45.0)
           (-45.0 45.0)
  end
  begin
     id 24 
     name rclavicle
     direction -0.920511 0.384752 -0.0680135   
     length 3.43787  
     axis 0 0 0   XYZ 
    dof ry rz
    limits (-10.0 20.0)
           (-20.0 0.0)
  end
  begin
     id 25 
     name rhumerus
     direction -0.999976 -0.00330524 0.00603274  
     length 5.5498   
     axis 180 30 90   XYZ
    dof rx ry rz
    limits (-90.0 60.0)
           (-90.0 90.0)
           (-90.0 90.0)
  end
  begin
     id 26 
     name rradius
     direction -1 -4.48967e-011 8.62438e-027   
     length 3.69401   
     axis 180 30 90   XYZ
    dof rx
    limits (-10.0 170.0)
  end
  begin
     id 27 
     name rwrist
     direction -1 -4.4897e-011 9.54866e-027   
     length 1.84701   
     axis -7.69462e-015 -90 -90   XYZ
    dof ry
    limits (-180.0 0.0)
  end
  begin
     id 28
     name rhand
     direction -1 -4.48982e-011 1.90973e-026   
     length 0.638113   
     axis -1.21857e-014 -90 -90   XYZ
    dof rx rz
    limits (-90.0 90.0)
           (-45.0 45.0)
  end
  begin
     id 29
     name rfingers
     direction -1 -4.48936e-011 3.81946e-026   
     length 0.514463   
     axis -2.43714e-014 -90 -90   XYZ
    dof rx
    limits (0.0 90.0)
  end
  begin
     id 30
     name rthumb
     direction -0.707107 -6.34942e-011 0.707107   
     length 0.738669   
     axis -90 -45 -2.85299e-015   XYZ
    dof rx rz
    limits (-45.0 45.0)
           (-45.0 45.0)
  end
:hierarchy
  begin
    root lhipjoint rhipjoint lowerback
    lhipjoint lfemur
    lfemur ltibia
    ltibia lfoot
    lfoot ltoes
    rhipjoint rfemur
    rfemur rtibia
    rtibia rfoot
    rfoot rtoes
    lowerback upperback
    upperback thorax
    thorax lowerneck lclavicle rclavicle
    lowerneck upperneck
    upperneck head
    lclavicle lhumerus
    lhumerus lradius
    lradius lwrist
    lwrist lhand lthumb
    lhand lfingers
    rclavicle rhumerus
    rhumerus rradius
    rradius rwrist
    rwrist rhand rthumb
    rhand rfingers
  end

#!OML:ASF F:\twosubjects\two\Thursday\Session 1\Rory.ASF
:FULLY-SPECIFIED
:DEGREES
132
root 12.0448 17.7605 -10.2567 -2.10665 -10.3841 3.76718
lowerback -0.63244 -1.41025 -7.81264
upperback 2.00234 -1.75521 0.907937
thorax 2.70256 -1.05 5.27354
lowerneck -6.61272 -0.143358 -1.90191
upperneck 42.5359 -0.508814 0.726944
head 16.3976 -0.545967 0.556949
rclavicle 2.48232e-014 7.95139e-015
rhumerus -32.5158 -15.4312 -71.6011
rradius 27.9115
rwrist 17.9717
rhand -26.6339 23.6857
rfingers 7.12502
rthumb -0.0664801 -6.29403
lclavicle 2.48232e-014 7.95139e-015
lhumerus -40.2629 18.1836 79.9529
lradius 28.9762
lwrist -23.4085
lhand -12.5119 30.678
lfingers 7.12502
lthumb 13.5636 60.2162
rfemur -14.9487 6.84784 15.1307
rtibia 30.6877
rfoot -13.8733 -9.10463
rtoes -1.82031
lfemur 0.897338 -0.125997 -19.6852
ltibia 22.8987
lfoot -15.6104 5.63845
ltoes 16.8432
133
root 12.0952 17.7688 -10.3008 -2.217 -10.486 3.68335
lowerback -0.394789 -1.47643 -8.00277
upperback 2.13817 -1.85869 1.0237
thorax 2.73773 -1.11333 5.50247
lowerneck -6.65521 -0.177825 -1.8683
upperneck 41.9713 -0.574767 0.752788
head 16.0975 -0.560909 0.550079
rclavicle -7.34261e-015 -5.56597e-015
rhumerus -32.4303 -15.7424 -71.2561
rradius 27.4649
rwrist 19.0257
rhand -25.8774 23.1281
rfingers 7.12502
rthumb 0.664138 -6.85062
lclavicle -7.34261e-015 -5.56597e-015
lhumerus -40.1557 18.3031 79.9326
lradius 28.9062
lwrist -24.7942
lhand -11.5508 30.6524
lfingers 7.12502
lthumb 14.4898 60.1265
rfemur -15.0231 6.85854 15.0723
rtibia 30.6679
rfoot -13.6053 -9.04163
rtoes -3.82817
lfemur 1.54214 -0.91138 -19.7171
ltibia 21.8059
lfoot -16.5622 5.20369
ltoes 23.3385
134
root 12.1497 17.7461 -10.3363 -2.31947 -10.6753 3.65972
lowerback -0.306657 -1.4587 -8.18259
upperback 2.35019 -1.83533 1.14177
thorax 2.91779 -1.12213 5.72848
lowerneck -6.87921 -0.233344 -1.80052
upperneck 41.5352 -0.663843 0.754191
head 15.9171 -0.582439 0.523827
rclavicle -1.43622e-014 -6.36111e-015
rhumerus -32.3196 -16.2376 -70.8336
rradius 27.0381
rwrist 20.0645
rhand -24.7879 22.8702
rfingers 7.12502
rthumb 1.71645 -7.1026
lclavicle -1.43622e-014 -6.36111e-015
lhumerus -39.6371 18.4824 80.1023
lradius 28.2895
lwrist -26.311
lhand -11.202 30.5953
lfingers 7.12502
lthumb 14.8259 60.045
rfemur -15.1911 6.74119 14.9332
rtibia 30.7225
rfoot -13.3092 -8.75897
rtoes -4.6465
lfemur 1.87807 -0.623549 -19.9466
ltibia 20.7006
lfoot -16.3166 6.28493
ltoes 17.8501
135
root 12.2027 17.7313 -10.3731 -2.33513 -10.8249 3.77354
lowerback -0.17786 -1.37554 -8.46928
upperback 2.46608 -1.7275 1.15877
thorax 2.96082 -1.0813 5.91457
lowerneck -7.32224 -0.389221 -1.69793
upperneck 41.4504 -0.955863 0.854297
head 15.9845 -0.673367 0.504821
rclavicle -3.02401e-014 -2.38542e-015
rhumerus -32.3709 -17.2007 -70.3144
rradius 26.5165
rwrist 21.3539
rhand -24.2596 23.6502
rfingers 7.12502
rthumb 2.22665 -6.31794
lclavicle -3.02401e-014 -2.38542e-015
lhumerus -38.9901 18.3933 80.2857
lradius 27.3028
lwrist -27.2788
lhand -11.3894 30.4968
lfingers 7.12502
lthumb 14.6454 59.9596
rfemur -15.5419 6.99126 14.6176
rtibia 30.9083
rfoot -13.0893 -8.84772
rtoes -4.57715
lfemur 2.14254 0.0264491 -20.2925
ltibia 19.5183
lfoot -15.5478 7.29993
ltoes 10.3298
136
root 12.2552 17.733 -10.4194 -2.09468 -10.7625 3.8397
lowerback -0.0459092 -1.37803 -8.79928
upperback 2.44326 -1.74033 1.22385
thorax 2.8799 -1.09222 6.17358
lowerneck -7.76749 -0.575313 -1.73294
upperneck 41.4529 -1.29493 1.02679
head 16.1034 -0.796448 0.534413
rclavicle -1.90585e-014 8.74653e-015
rhumerus -32.3674 -18.0719 -69.7865
rradius 25.8435
rwrist 22.5356
rhand -24.6774 24.0529
rfingers 7.12502
rthumb 1.8231 -5.91905
lclavicle -1.90585e-014 8.74653e-015
lhumerus -38.5446 17.9879 80.6525
lradius 26.5634
lwrist -27.3536
lhand -12.8051 30.1351
lfingers 7.12502
lthumb 13.2811 59.692
rfemur -16.1466 7.31114 14.3127
rtibia 31.1592
rfoot -12.8752 -9.26848
rtoes -4.59967
lfemur 2.3087 0.212055 -20.4966
ltibia 18.2565
lfoot -15.2241 7.18252
ltoes 11.8227
137
root 12.3082 17.7254 -10.4655 -1.88077 -10.7448 3.69344
lowerback 0.124301 -1.5025 -8.98713
upperback 2.38686 -1.92688 1.4203
thorax 2.77278 -1.18598 6.48683
lowerneck -7.88639 -0.569321 -1.83067
upperneck 41.3183 -1.29314 1.10123
head 16.0613 -0.801468 0.583697
rclavicle 6.95746e-016 4.37326e-015
rhumerus -32.4497 -17.5908 -69.5356
rradius 25.4575
rwrist 22.7451
rhand -24.6277 23.5436
rfingers 7.12502
rthumb 1.87115 -6.42798
lclavicle 6.95746e-016 4.37326e-015
lhumerus -38.5083 18.4038 80.7003
lradius 26.2
lwrist -28.0541
lhand -13.8137 29.4913
lfingers 7.12502
lthumb 12.3088 59.109
rfemur -16.5528 7.35381 14.2605
rtibia 31.2948
rfoot -12.7747 -9.35565
rtoes -4.46343
lfemur 2.52701 0.222212 -20.4952
ltibia 17.1235
lfoot -15.0609 7.1686
ltoes 12.643
138
root 12.3602 17.7265 -10.5089 -1.75859 -10.8313 3.63405
lowerback 0.373507 -1.61429 -9.22889
upperback 2.30387 -2.10326 1.52985
thorax 2.59246 -1.2697 6.74305
lowerneck -7.59215 -0.522107 -1.94255
upperneck 40.9217 -1.2746 1.29158
head 15.7799 -0.787963 0.687998
rclavicle -2.22142e-014 2.8625e-014
rhumerus -32.7823 -17.3523 -69.2278
rradius 25.1626
rwrist 23.474
rhand -23.3796 22.4973
rfingers 7.12502
rthumb 3.07653 -7.46022
lclavicle -2.22142e-014 2.8625e-014
lhumerus -38.3575 19.0673 80.3691
lradius 25.7055
lwrist -29.1903
lhand -11.3842 29.1159
lfingers 7.12502
lthumb 14.6504 58.5784
rfemur -16.8385 7.24836 14.1297
rtibia 31.281
rfoot -12.6223 -9.1908
rtoes -4.86151
lfemur 2.74275 0.174083 -20.6073
ltibia 16.2571
lfoot -15.1465 7.19766
ltoes 13.4564
139
root 12.4122 17.7366 -10.552 -1.60055 -10.911 3.71945
lowerback 0.637074 -1.53459 -9.54028
upperback 2.3103 -2.02074 1.53669
thorax 2.44905 -1.22855 6.93789
lowerneck -7.4591 -0.687869 -2.09072
upperneck 40.3 -1.65618 1.75541
head 15.4394 -0.907635 0.855016
rclavicle -3.9583e-014 7.55382e-015
rhumerus -32.9159 -18.7433 -68.4705
rradius 24.4441
rwrist 25.0573
rhand -21.2524 20.4761
rfingers 7.12502
rthumb 5.13063 -9.44175
lclavicle -3.9583e-014 7.55382e-015
lhumerus -37.8036 18.666 80.5336
lradius 25.1803
lwrist -29.3117
lhand -9.63007 28.504
lfingers 7.12502
lthumb 16.3399 57.8357
rfemur -17.2426 7.43369 13.8088
rtibia 31.2071
rfoot -12.3688 -9.28534
rtoes -5.16321
lfemur 2.80335 0.161799 -20.8577
ltibia 15.5624
lfoot -15.2643 7.05265
ltoes 15.1611
140
root 12.4616 17.7409 -10.6027 -1.32555 -10.8982 3.50439
lowerback 0.909926 -1.43952 -9.52582
upperback 2.42405 -1.91906 1.63201
thorax 2.39815 -1.181 7.03976
lowerneck -7.89114 -0.737104 -1.86176
upperneck 39.7416 -1.81895 1.94072
head 15.2598 -0.909001 0.863954
rclavicle 6.08778e-015 1.98785e-015
rhumerus -32.8195 -19.8249 -67.9165
rradius 23.9066
rwrist 25.7766
rhand -23.4135 23.5428
rfingers 7.12502
rthumb 3.04378 -6.41524
lclavicle 6.08778e-015 1.98785e-015
lhumerus -37.2442 18.1599 80.9596
lradius 24.9609
lwrist -28.8894
lhand -10.6027 28.3687
lfingers 7.12502
lthumb 15.4032 57.7748
rfemur -17.6965 7.97526 13.8159
rtibia 31.1356
rfoot -12.142 -9.83596
rtoes -4.30173
lfemur 2.76057 0.230551 -20.7351
ltibia 14.843
lfoot -15.2179 6.89965
ltoes 15.0405
